HIERARCHY
ROOT SpineBase
{
  OFFSET 0.000000 0.000000 0.000000
  CHANNELS 6 Xposition Yposition Zposition Zrotation Xrotation Yrotation
  JOINT SpineMid
  {
    OFFSET -0.000000 28.586509 0.000000
    CHANNELS 3 Zrotation Xrotation Yrotation
    JOINT SpineShoulder
    {
      OFFSET -0.114206 21.281955 -0.665775
      CHANNELS 3 Zrotation Xrotation Yrotation
      JOINT Neck
      {
        OFFSET -0.089587 7.047012 -0.519513
        CHANNELS 3 Zrotation Xrotation Yrotation
        JOINT Head
        {
          OFFSET -4.890020 11.912195 2.551300
          CHANNELS 3 Zrotation Xrotation Yrotation
          End Site
          {
            OFFSET 0 0 0
          }
        }
      }
      JOINT ShoulderLeft
      {
        OFFSET -11.367407 -5.039985 11.975299
        CHANNELS 3 Zrotation Xrotation Yrotation
        JOINT ElbowLeft
        {
          OFFSET -0.876658 -27.137648 5.991135
          CHANNELS 3 Zrotation Xrotation Yrotation
          JOINT WristLeft
          {
            OFFSET -2.681204 -21.676169 -0.843100
            CHANNELS 3 Zrotation Xrotation Yrotation
            JOINT HandLeft
            {
              OFFSET 0.031172 -5.892827 -1.914103
              CHANNELS 3 Zrotation Xrotation Yrotation
              JOINT HandTipLeft
              {
                OFFSET -0.129136 -6.125513 -0.107118
                CHANNELS 3 Zrotation Xrotation Yrotation
                End Site
                {
                  OFFSET 0 0 0
                }
              }
              JOINT ThumbLeft
              {
                OFFSET -1.796690 0.767054 -0.375667
                CHANNELS 3 Zrotation Xrotation Yrotation
                End Site
                {
                  OFFSET 0 0 0
                }
              }
            }
          }
        }
      }
      JOINT ShoulderRight
      {
        OFFSET 9.963224 -3.067372 -12.210124
        CHANNELS 3 Zrotation Xrotation Yrotation
        JOINT ElbowRight
        {
          OFFSET 4.798697 -25.188753 -7.160633
          CHANNELS 3 Zrotation Xrotation Yrotation
          JOINT WristRight
          {
            OFFSET -3.122100 -20.401977 -3.513699
            CHANNELS 3 Zrotation Xrotation Yrotation
            JOINT HandRight
            {
              OFFSET -1.658316 -8.047842 0.745167
              CHANNELS 3 Zrotation Xrotation Yrotation
              JOINT HandTipRight
              {
                OFFSET -0.967862 -7.167820 0.041906
                CHANNELS 3 Zrotation Xrotation Yrotation
                End Site
                {
                  OFFSET 0 0 0
                }
              }
              JOINT ThumbRight
              {
                OFFSET -3.063194 0.907499 0.002460
                CHANNELS 3 Zrotation Xrotation Yrotation
                End Site
                {
                  OFFSET 0 0 0
                }
              }
            }
          }
        }
      }
    }
  }
  JOINT HipLeft
  {
    OFFSET -5.297707 0.085407 0.984347
    CHANNELS 3 Zrotation Xrotation Yrotation
    JOINT KneeLeft
    {
      OFFSET -1.171201 -30.962948 3.092198
      CHANNELS 3 Zrotation Xrotation Yrotation
      JOINT AnkleLeft
      {
        OFFSET 1.203935 -35.211296 3.336709
        CHANNELS 3 Zrotation Xrotation Yrotation
        JOINT FootLeft
        {
          OFFSET -7.556432 -4.111635 -9.806326
          CHANNELS 3 Zrotation Xrotation Yrotation
          End Site
          {
            OFFSET 0 0 0
          }
        }
      }
    }
  }
  JOINT HipRight
  {
    OFFSET 4.014937 1.364467 -7.604627
    CHANNELS 3 Zrotation Xrotation Yrotation
    JOINT KneeRight
    {
      OFFSET 13.714774 -32.310521 0.941108
      CHANNELS 3 Zrotation Xrotation Yrotation
      JOINT AnkleRight
      {
        OFFSET 8.726392 -33.528026 8.318465
        CHANNELS 3 Zrotation Xrotation Yrotation
        JOINT FootRight
        {
          OFFSET -9.013016 -3.684056 -10.314250
          CHANNELS 3 Zrotation Xrotation Yrotation
          End Site
          {
            OFFSET 0 0 0
          }
        }
      }
    }
  }
}
MOTION
Frames: 13
Frame Time: 0.033333
66.673626 132.316156 365.139168 0.000000 0.000000 42.685086 -0.000000 0.000000 -42.685086 -0.000000 0.000000 0.000000 -0.000000 0.000000 0.000000 0.000000 0.000000 0.000000 -0.000000 0.000000 0.000000 -0.000000 0.000000 0.000000 -0.000000 0.000000 0.000000 -0.000000 0.000000 0.000000 0.000000 0.000000 0.000000 0.000000 0.000000 0.000000 -0.000000 0.000000 0.000000 -0.000000 0.000000 0.000000 -0.000000 0.000000 0.000000 -0.000000 0.000000 0.000000 0.000000 0.000000 0.000000 0.000000 0.000000 0.000000 -0.000000 0.000000 -42.685086 -0.000000 0.000000 0.000000 -0.000000 0.000000 0.000000 0.000000 0.000000 0.000000 -0.000000 0.000000 -42.685086 -0.000000 0.000000 0.000000 -0.000000 0.000000 0.000000 0.000000 0.000000 0.000000
66.699284 132.274174 365.158926 0.029481 -0.032473 42.420866 0.000142 0.043858 -42.420858 -0.000000 0.000000 0.000000 -0.000000 0.000000 0.000000 0.000000 0.000000 0.000000 -0.000000 0.000000 0.000000 -0.000000 0.000000 0.000000 -0.289726 1.862334 0.108101 1.289982 2.423884 -0.211484 0.000000 0.000000 0.000000 0.000000 0.000000 0.000000 -0.000000 0.000000 0.000000 -0.000000 0.000000 0.000000 -0.785012 0.342953 -0.140846 0.951820 0.791786 -0.007076 0.000000 0.000000 0.000000 0.000000 0.000000 0.000000 0.000142 0.043858 -42.420858 -0.000000 0.000000 0.000000 -0.000000 0.000000 0.000000 0.000000 0.000000 0.000000 0.000142 0.043858 -42.420858 -0.000000 0.000000 0.000000 2.796527 -2.609908 -1.575529 0.000000 0.000000 0.000000
66.724815 132.241367 365.165892 0.060461 -0.051376 42.242604 -0.010222 0.078680 -42.242569 -0.000000 0.000000 0.000000 -0.000000 0.000000 0.000000 0.000000 0.000000 0.000000 -0.000000 0.000000 0.000000 -0.000000 0.000000 0.000000 -0.472404 3.238222 0.182264 2.278459 4.417176 -0.367565 0.000000 0.000000 0.000000 0.000000 0.000000 0.000000 -0.000000 0.000000 0.000000 -0.000000 0.000000 0.000000 -1.447816 0.572773 -0.244328 1.815948 1.439590 -0.012678 0.000000 0.000000 0.000000 0.000000 0.000000 0.000000 -0.010222 0.078680 -42.242569 -0.000000 0.000000 0.000000 -0.681922 0.537649 0.627614 0.000000 0.000000 0.000000 -0.628899 -0.659204 -42.652856 -0.044913 0.961875 0.407529 5.497232 -5.214352 -3.159503 0.000000 0.000000 0.000000
66.750217 132.217734 365.160067 0.092963 -0.056766 42.148711 -0.030831 0.104470 -42.148637 -0.000000 0.000000 0.000000 -0.000000 0.000000 0.000000 0.000000 0.000000 0.000000 -0.000000 0.000000 0.000000 -0.000000 0.000000 0.000000 -0.548316 4.139840 0.217286 2.968644 6.018666 -0.474976 0.000000 0.000000 0.000000 0.000000 0.000000 0.000000 -0.000000 0.000000 0.000000 -0.000000 0.000000 0.000000 -1.996577 0.692848 -0.314627 2.599664 1.921997 -0.015716 0.000000 0.000000 0.000000 0.000000 0.000000 0.000000 -0.030831 0.104470 -42.148637 -0.000000 0.000000 0.000000 -0.655251 0.503992 0.626276 0.000000 0.000000 0.000000 -0.920199 -0.938510 -42.735209 -0.054466 1.369582 0.580750 7.997916 -7.693570 -4.740328 0.000000 0.000000 0.000000
66.775492 132.203275 365.141451 0.127008 -0.048677 42.138163 -0.061522 0.121308 -42.138044 -0.000000 0.000000 0.000000 -0.000000 0.000000 0.000000 0.000000 0.000000 0.000000 -0.000000 0.000000 0.000000 -0.000000 0.000000 0.000000 -0.518728 4.580215 0.210747 3.370504 7.273684 -0.537894 0.000000 0.000000 0.000000 0.000000 0.000000 0.000000 -0.000000 0.000000 0.000000 -0.000000 0.000000 0.000000 -2.437471 0.705130 -0.354669 3.307572 2.225419 -0.015417 0.000000 0.000000 0.000000 0.000000 0.000000 0.000000 -0.061522 0.121308 -42.138044 0.170526 0.866498 0.044527 -0.171219 -0.866361 -0.047111 0.000000 0.000000 0.000000 -1.198582 -1.184223 -42.881985 -0.955075 2.132688 0.650143 11.118758 -10.297440 -6.124013 0.000000 0.000000 0.000000
66.800639 132.197990 365.110043 0.162623 -0.027122 42.210488 -0.102229 0.129348 -42.210334 -0.000000 0.000000 0.000000 -0.000000 0.000000 0.000000 0.000000 0.000000 0.000000 -0.000000 0.000000 0.000000 -0.000000 0.000000 0.000000 -0.385794 4.571371 0.162799 3.495016 8.220643 -0.557234 0.000000 0.000000 0.000000 0.000000 0.000000 0.000000 -0.000000 0.000000 0.000000 -0.000000 0.000000 0.000000 -2.774838 0.610121 -0.366274 3.941689 2.344096 -0.011501 0.000000 0.000000 0.000000 0.000000 0.000000 0.000000 -0.903928 0.492050 -42.279378 1.021008 1.178615 0.117672 -0.185747 -0.907224 -0.050058 0.000000 0.000000 0.000000 -1.465548 -1.396289 -43.092944 -1.310110 2.595079 0.755922 13.287634 -12.250807 -7.601713 0.000000 0.000000 0.000000
66.841202 132.192094 365.061375 0.225850 0.020653 42.293939 -0.180960 0.136705 -42.293764 -0.000000 0.000000 0.000000 -0.000000 0.000000 0.000000 0.000000 0.000000 0.000000 -0.000000 0.000000 0.000000 -0.000000 0.000000 0.000000 -0.223778 3.496519 0.097058 3.068952 9.221375 -0.545262 0.000000 0.000000 0.000000 0.000000 0.000000 0.000000 -0.000000 0.000000 0.000000 -0.000000 0.000000 0.000000 -3.082966 0.178180 -0.315742 4.919310 1.278281 0.124362 0.000000 0.000000 0.000000 0.000000 0.000000 0.000000 -1.071885 0.537044 -42.369726 1.091057 1.348742 0.127699 1.462640 -2.508662 -1.266138 0.000000 0.000000 0.000000 -1.825071 -1.580586 -43.324733 -1.863238 3.221786 0.866768 13.858382 -12.276205 -8.346552 0.000000 0.000000 0.000000
66.871619 132.203609 364.997719 0.273779 0.076969 42.541308 -0.253758 0.128398 -42.541208 -0.000000 0.000000 0.000000 -0.000000 0.000000 0.000000 0.000000 0.000000 0.000000 -0.000000 0.000000 0.000000 -0.000000 0.000000 0.000000 0.130145 2.282092 -0.032581 2.210651 10.819058 -0.465669 0.000000 0.000000 0.000000 0.000000 0.000000 0.000000 -0.000000 0.000000 0.000000 -0.000000 0.000000 0.000000 -3.371130 -0.302051 -0.257256 5.400651 1.787589 0.015628 0.000000 0.000000 0.000000 0.000000 0.000000 0.000000 -1.069684 0.664229 -42.625810 1.192583 1.017794 0.137830 2.495163 -3.311379 -2.156518 0.000000 0.000000 0.000000 -2.233603 -1.855279 -43.762812 -2.690985 3.994060 1.001899 19.449813 -17.602364 -13.465342 0.000000 0.000000 0.000000
66.877114 132.233755 364.933648 0.288418 0.137803 42.920822 -0.305049 0.095497 -42.920914 -0.000000 0.000000 0.000000 -0.000000 0.000000 0.000000 0.000000 0.000000 0.000000 -0.000000 0.000000 0.000000 -0.000000 0.000000 0.000000 0.629673 1.163910 -0.204091 1.094512 10.862459 -0.239454 0.000000 0.000000 0.000000 0.000000 0.000000 0.000000 -0.000000 0.000000 0.000000 -0.000000 0.000000 0.000000 -3.332972 -0.641176 -0.193965 5.524911 1.791361 -0.031182 0.000000 0.000000 0.000000 0.000000 0.000000 0.000000 -1.134817 0.841694 -43.024815 1.115724 0.020709 0.110486 3.399189 -3.074216 -2.684875 0.000000 0.000000 0.000000 -2.467151 -1.996065 -44.236395 -3.135562 4.378985 1.067405 21.511002 -19.477843 -16.687562 0.000000 0.000000 0.000000
66.883062 132.264854 364.868922 0.299352 0.189618 43.264214 -0.347945 0.067086 -43.264505 -0.000000 0.000000 0.000000 -0.000000 0.000000 0.000000 0.000000 0.000000 0.000000 0.570919 0.601822 0.103739 -0.572040 -0.600757 -0.109736 1.151202 0.145253 -0.374460 1.206762 13.156468 -0.220602 0.000000 0.000000 0.000000 0.000000 0.000000 0.000000 -0.000000 0.000000 0.000000 -0.000000 0.000000 0.000000 -3.182134 -0.671539 -0.173903 5.726640 2.185746 -0.115685 0.000000 0.000000 0.000000 0.000000 0.000000 0.000000 -1.224943 0.606796 -43.352153 1.008187 0.209627 0.090961 3.622595 -3.273481 -2.885393 0.000000 0.000000 0.000000 -2.580824 -2.067653 -44.617530 -3.354739 4.592026 1.107558 19.705349 -16.790539 -17.209897 0.000000 0.000000 0.000000
66.904200 132.300143 364.800406 0.330245 0.235098 43.607940 -0.401274 0.057550 -43.608416 -0.000000 0.000000 0.000000 -0.000000 0.000000 0.000000 0.000000 0.000000 0.000000 0.683157 0.596080 0.128183 -1.598810 -0.713459 -0.095233 2.920393 -0.187755 -0.704253 0.282567 12.176660 0.115994 0.000000 0.000000 0.000000 0.000000 0.000000 0.000000 -0.000000 0.000000 0.000000 -0.000000 0.000000 0.000000 -2.886142 -0.896600 -0.104505 4.632925 3.209982 -0.305654 0.000000 0.000000 0.000000 0.000000 0.000000 0.000000 -1.341197 0.544819 -43.693780 1.016193 0.297015 0.087671 3.395936 -3.048577 -2.728681 0.000000 0.000000 0.000000 -2.455492 -1.972326 -44.870143 -2.989762 4.073453 0.992717 21.035331 -18.949114 -17.017148 0.000000 0.000000 0.000000
66.912025 132.339521 364.750246 0.344429 0.243687 43.966623 -0.417077 0.063726 -43.967124 -0.000000 0.000000 0.000000 -0.000000 0.000000 0.000000 0.000000 0.000000 0.000000 0.768467 0.646629 0.144642 -2.748604 -1.075291 -0.052376 6.801793 0.764465 -1.752056 -4.310594 9.118098 1.290320 0.000000 0.000000 0.000000 0.000000 0.000000 0.000000 -0.000000 0.000000 0.000000 -0.000000 0.000000 0.000000 -2.574076 -0.608932 -0.125939 4.347818 3.569742 -0.355749 0.000000 0.000000 0.000000 0.000000 0.000000 0.000000 -1.322610 0.609988 -44.055807 1.030599 0.237127 0.091874 2.718681 -2.423679 -2.177433 0.000000 0.000000 0.000000 -2.429741 -1.767413 -45.154782 -2.364221 3.543153 0.904745 16.576502 -13.928408 -13.257110 0.000000 0.000000 0.000000
66.917843 132.365941 364.717439 0.334758 0.205222 44.205156 -0.383056 0.086292 -44.205467 -0.000000 0.000000 0.000000 -0.000000 0.000000 0.000000 0.000000 0.000000 0.000000 0.855723 0.697445 0.161437 -2.741021 -1.031324 -0.084871 6.326761 1.107276 -1.612855 -3.629082 7.998434 1.147562 0.000000 0.000000 0.000000 0.000000 0.000000 0.000000 -0.000000 0.000000 0.000000 -0.000000 0.000000 0.000000 -2.459523 -0.554427 -0.124817 4.158709 3.333738 -0.322101 0.000000 0.000000 0.000000 0.000000 0.000000 0.000000 -1.289177 0.671485 -44.297013 1.057197 0.214016 0.095564 1.619688 -1.436270 -1.274354 0.000000 0.000000 0.000000 -2.062527 -1.330665 -45.158469 -1.215362 2.459402 0.718352 9.567728 -7.254934 -7.547273 0.000000 0.000000 0.000000
